<?xml version="1.0" encoding="UTF-8"?>
<svg id="Layer_1" xmlns="http://www.w3.org/2000/svg" version="1.1" viewBox="0 0 272.48 84.95">
  <!-- Generator: Adobe Illustrator 29.8.2, SVG Export Plug-In . SVG Version: 2.1.1 Build 3)  -->
  <path d="M244.05,39.45c-1.28,0-2.52.25-3.65.87-1.27.7-2.36,1.86-3.25,2.99-.73.94-1.38,1.95-1.87,3.04-.37.81-.65,1.71-.65,2.6,0,.51.07,1.15.46,1.51.45.38,1.49.42,2.04.42.83,0,1.88-.06,2.66-.37.68-.28,1.29-.76,1.8-1.28,1.17-1.18,2.06-2.72,2.77-4.21.58-1.22,1.24-2.87,1.24-4.24,0-.32-.04-.82-.26-1.05-.26-.25-.95-.27-1.28-.27M216.7,41.64l.07-.71c0-.34-.05-.82-.33-1.05-.34-.28-1.05-.32-1.46-.32-2.37,0-4.31,1.38-5.84,3.08-1.62,1.8-2.79,3.94-2.79,6.41,0,.48.06,1.28.43,1.63.4.37,1.44.42,1.95.42,1.62,0,3.04-.56,4.3-1.58,1.29-1.05,2.17-2.37,2.63-3.96l.78-2.89.25-1.04ZM164.03,39.45c-1.28,0-2.52.25-3.65.87-1.27.7-2.36,1.86-3.25,2.99-.73.94-1.38,1.95-1.87,3.04-.37.81-.65,1.71-.65,2.6,0,.51.07,1.15.46,1.51.45.38,1.49.42,2.04.42.83,0,1.88-.06,2.66-.37.68-.28,1.29-.76,1.8-1.28,1.17-1.18,2.06-2.72,2.77-4.21.58-1.22,1.24-2.87,1.24-4.24,0-.32-.04-.82-.26-1.05-.26-.25-.95-.27-1.28-.27ZM81.71,39.45c-1.28,0-2.52.25-3.65.87-1.27.7-2.36,1.86-3.25,2.99-.73.94-1.38,1.95-1.87,3.04-.37.81-.65,1.71-.65,2.6,0,.51.07,1.15.46,1.51.45.38,1.49.42,2.04.42.83,0,1.88-.06,2.66-.37.68-.28,1.29-.76,1.8-1.28,1.17-1.18,2.06-2.72,2.77-4.21.58-1.22,1.24-2.87,1.24-4.24,0-.32-.04-.82-.26-1.05-.26-.25-.95-.27-1.28-.27ZM242.81,50.95c-1.02,1.08-2.21,2.18-3.43,2.89-1.19.69-2.47,1.06-3.84,1.06s-2.68-.28-3.67-1.22c-1-.95-1.31-2.31-1.31-3.64,0-1.65.43-3.2,1.21-4.64.88-1.63,2.14-3.04,3.54-4.24,1.36-1.17,2.87-2.16,4.54-2.84,1.59-.65,3.27-.95,4.99-.95,1.28,0,2.58.27,3.58,1.11.96.81,1.37,1.89,1.37,3.14,0,1.12-.6,2.76-1,3.8-.7,1.85-1.52,3.68-2.37,5.48h1.33c1.49,0,2.8-.47,3.92-1.42.27-.24.62-.52.98-.59l.16-.03.58.22.23.5v.12c0,1.03-1.64,2.51-2.34,3.14-1.17,1.06-2.7,2.09-4.34,2.09-1.12,0-2.2-.32-2.94-1.2-.59-.7-.95-1.76-1.18-2.75ZM214.51,50.88c-1.21,1.16-2.69,2.48-3.98,3.18-.54.29-1.12.55-1.72.71-.6.17-1.23.24-1.85.24-1.37,0-2.86-.26-3.91-1.21-1.03-.94-1.36-2.3-1.36-3.65,0-1.51.49-2.95,1.21-4.26.87-1.6,2.08-3,3.41-4.23,1.36-1.26,2.89-2.38,4.57-3.17,1.42-.67,2.96-1.12,4.53-1.12.39,0,.77.03,1.15.1.35.06.71.16,1.06.27l2.33-8.75c.8-3.14,1.84-6.42,3.35-9.3,1.17-2.23,2.68-4.3,4.61-5.93l.15-.13h1.16c.24,0,.46.07.63.24l.02.02.26.31v.19c0,.39-.43.83-.68,1.08-2.04,2.2-3.39,4.95-4.3,7.79-.45,1.42-.79,2.94-1.11,4.4-.58,2.65-1.12,5.32-1.63,7.98-1,5.15-2.24,10.53-4.11,15.47h.03s.93,0,.93,0c1.07,0,2.07-.28,2.95-.89l1.63-1.14.26.08c.19.06.38.15.49.32.13.18.16.39.16.61,0,.96-1.77,2.38-2.43,2.93-1.11.92-2.65,1.99-4.16,1.99-1.11,0-2.13-.35-2.81-1.26-.58-.79-.8-1.86-.86-2.87ZM181.38,41.41c-.45-.05-.86-.25-1.19-.59l-.02-.02-.02-.02c-.38-.47-.48-1.09-.48-1.68,0-.82.25-1.57.8-2.18.54-.6,1.24-.91,2.05-.91.56,0,1.07.16,1.46.56.28.27.44.6.51.96h10.96l-1.13.95c-1.76,1.49-3.81,3.41-4.96,5.43-.92,1.61-1.35,3.36-1.35,5.22,0,.46.05,1.25.36,1.63.34.31,1.09.36,1.52.36,1.03,0,2.02-.35,2.91-.86.42-.24,1.5-.91,1.95-1.04l.2-.06.19.09c.14.07.26.15.35.27.14.17.18.37.18.58,0,1.02-1.97,2.48-2.69,3.03-1.41,1.07-3.11,2-4.93,2-1.17,0-2.27-.33-3.05-1.26-.79-.95-1.01-2.23-1.01-3.43,0-1.62.41-3.15,1.19-4.57.84-1.53,2.17-3.09,3.44-4.44h-4.46c-.45,1.19-1.02,2.34-1.76,3.37-.42.58-1.26,1.76-2.07,1.76h-.07l-.38-.09-.35-.51.13-.28c.08-.17.16-.34.24-.52.19-.4.41-.8.62-1.2.44-.8.71-1.65.85-2.54ZM162.79,50.95c-1.02,1.08-2.21,2.18-3.43,2.89-1.19.69-2.47,1.06-3.84,1.06s-2.68-.28-3.67-1.22c-1-.95-1.31-2.31-1.31-3.64,0-1.65.43-3.2,1.21-4.64.88-1.63,2.14-3.04,3.54-4.24,1.36-1.17,2.87-2.16,4.54-2.84,1.59-.65,3.27-.95,4.99-.95,1.28,0,2.58.27,3.58,1.11.96.81,1.37,1.89,1.37,3.14,0,1.12-.6,2.76-1,3.8-.7,1.85-1.52,3.68-2.37,5.48h1.33c1.49,0,2.8-.47,3.92-1.42.27-.24.62-.52.98-.59l.16-.03.58.22.23.5v.12c0,1.03-1.64,2.51-2.34,3.14-1.17,1.06-2.7,2.09-4.34,2.09-1.12,0-2.2-.32-2.94-1.2-.59-.7-.95-1.76-1.18-2.75ZM138.8,39.2c-4.1,2.57-8.48,4.95-12.98,6.61-4.16,1.53-8.51,2.44-12.95,2.44-3.37,0-7.25-.44-10.18-2.24-2.45-1.51-3.77-3.69-3.77-6.59,0-2.35,1.05-4.6,2.33-6.52,1.69-2.54,3.96-4.71,6.35-6.59,4.24-3.33,9.03-5.81,14.11-7.61,4.93-1.74,10.12-2.88,15.36-2.88,2.53,0,5.36.3,7.63,1.49,1.69.88,3.02,2.23,3.02,4.23s-1.62,4.08-3.01,5.48c-2.41,2.43-5.57,4.49-8.51,6.21-3.56,2.08-7.29,3.84-11.17,5.25-2.02.73-5.77,2.1-7.92,2.1-.62,0-1.48-.35-2.04-.6-1.02-.44-2-1.02-2.93-1.63l-.24-.16v-1.24l1.93.24h1.38c3.06,0,6.13-.5,9.08-1.26,3.17-.81,6.22-1.98,9.14-3.47,2.69-1.38,5.34-3.11,7.4-5.35,1.29-1.4,2.71-3.35,2.71-5.35,0-1.3-.86-2.16-1.94-2.77-1.64-.93-3.68-1.18-5.53-1.18-4.06,0-8.05.84-11.86,2.21-4.12,1.48-7.94,3.58-11.42,6.24-2.47,1.89-4.9,4.13-6.66,6.72-1.24,1.82-2.24,3.96-2.24,6.21,0,2.01.78,3.58,2.49,4.65,2.17,1.36,5.3,1.64,7.8,1.64,4.54,0,8.96-.94,13.18-2.57,4.99-1.91,9.68-4.73,13.99-7.88l3.9-2.77c.31-.2.99-.67,1.33-.76l.2-.06.59.29.15.64v.06c0,.58-.6,1.24-.99,1.63l-.93,1.07c-1.8,2.27-2.98,5.23-3.81,7.98-.18.68-.38,1.52-.67,2.17-1.03,2.99-2.55,5.74-4.53,8.21-2.25,2.81-5.08,5.24-7.98,7.36-1.66,1.21-3.49,2.31-5.45,2.96-1.98.66-4.13.88-6.21.88-1.92,0-3.96-.21-5.87-.4-1.9-.19-3.92-.39-5.82-.39-.94,0-1.88.05-2.81.17-.92.11-1.83.28-2.72.5l-1.5.36.95-1.22c1-1.29,2.41-2.08,3.95-2.53,2.43-.71,6.1-.73,8.62-.73h1.85s4.46-.11,4.46-.11c.6,0,1.2-.02,1.81-.04.72-.03,1.43-.07,2.14-.13h.02s.02,0,.02,0c1.04,0,2.09-.09,3.11-.34.86-.21,1.71-.5,2.5-.9,1.39-.69,2.52-1.72,3.44-2.96.64-.86,1.2-2,1.65-2.96.81-1.72,1.54-3.5,2.23-5.28,1.12-2.86,2.37-5.8,3.85-8.55ZM80.47,50.95c-1.02,1.08-2.21,2.18-3.43,2.89-1.19.69-2.47,1.06-3.84,1.06s-2.68-.28-3.67-1.22c-1-.95-1.31-2.31-1.31-3.64,0-1.65.43-3.2,1.21-4.64.88-1.63,2.14-3.04,3.54-4.24,1.36-1.17,2.87-2.16,4.54-2.84,1.59-.65,3.27-.95,4.99-.95,1.28,0,2.58.27,3.58,1.11.96.81,1.37,1.89,1.37,3.14,0,1.12-.6,2.76-1,3.8-.7,1.85-1.52,3.68-2.37,5.48h1.33c1.49,0,2.8-.47,3.92-1.42.27-.24.62-.52.98-.59l.16-.03.58.22.23.5v.12c0,1.03-1.64,2.51-2.34,3.14-1.17,1.06-2.7,2.09-4.34,2.09-1.12,0-2.2-.32-2.94-1.2-.59-.7-.95-1.76-1.18-2.75ZM36.08,50.94h16.86c2.18,0,4.83-.21,6.82-1.19h.03s.42-.17.42-.17h.1c.27,0,.52.08.71.27l.08.08.2.47v.11c0,.57-.53,1.1-.93,1.46-.66.59-1.48,1.08-2.25,1.5-1.18.64-2.59.99-3.91,1.2-2.31.38-4.98.39-7.32.39h-23.3c-.55,0-1.09.01-1.64.04-.55.02-1.1.06-1.65.13h-.03s-.51,0-.51,0l-.49-.06c-.26-.03-.48-.15-.62-.38l-.07-.13v-.15c0-.7.95-1.31,1.47-1.64.96-.6,2.03-1.03,3.13-1.34.8-.21,1.64-.33,2.46-.43,1.11-.13,2.24-.17,3.36-.17s2.28-.09,3.36-.39c.83-.23,1.64-.59,2.34-1.12,1.05-.78,1.94-1.91,2.65-2.99.47-.74.9-1.51,1.3-2.29.47-.91.89-1.86,1.28-2.81.73-1.81,1.35-3.87,1.96-5.73.9-2.73,2.01-5.54,3.51-8,1.95-3.2,4.45-5.91,7.58-7.97,2.71-1.78,5.77-3.07,9.06-3.07,1.25,0,2.58.25,3.48,1.19.89.94,1.12,2.32,1.12,3.57,0,1.38-.39,2.8-.89,4.08-.65,1.68-1.55,3.29-2.54,4.79-.24.36-.49.73-.75,1.08-.19.26-.4.52-.62.75l-.02.02c-.18.16-.37.32-.6.44-.18.09-.37.17-.57.2h-.04s-.04,0-.04,0c-.34,0-.65-.14-.87-.4l-.05-.05-.03-.06c-.12-.24-.17-.59-.2-.85v-.03s0-.03,0-.03c0-1.05,1.1-3.88,1.47-4.89.56-1.52,1.4-3.91,1.4-5.54,0-.46-.05-1.17-.4-1.51l-.02-.02v-.02c-.31-.34-.93-.4-1.34-.4-2.35,0-4.37,1.25-6.03,2.81-2.29,2.16-3.82,5.03-4.88,7.95l-.73,2.1c-2.52,7.22-6.43,14.62-12.75,19.21Z" fill="#72abaf" fill-rule="evenodd" stroke="#72abaf" stroke-miterlimit="10" stroke-width=".25"/>
  <path d="M192.87,65.37l-1.21,5.91h-.78l.2-.93c-.57.62-1.38.99-2.36.99-1.55,0-2.63-.94-2.63-2.5,0-2.02,1.45-3.5,3.41-3.5,1.15,0,1.95.46,2.3,1.28l.25-1.24h.82ZM191.51,67.86c0-1.16-.72-1.84-1.99-1.84-1.5,0-2.62,1.17-2.62,2.77,0,1.16.72,1.83,1.99,1.83,1.5,0,2.62-1.16,2.62-2.76ZM204.67,67.22c0,.21-.03.45-.08.7l-.69,3.36h-.82l.69-3.37c.05-.2.06-.38.06-.55,0-.83-.49-1.31-1.49-1.31-1.21,0-2.07.65-2.34,1.98l-.67,3.26h-.82l.69-3.37c.03-.19.06-.37.06-.54,0-.84-.48-1.33-1.49-1.33-1.23,0-2.08.7-2.37,2.07l-.64,3.17h-.82l1.2-5.91h.78l-.2.94c.57-.69,1.37-.99,2.29-.99,1.02,0,1.71.43,1.98,1.18.61-.79,1.49-1.18,2.55-1.18,1.37,0,2.14.71,2.14,1.9ZM211.62,64.13l-.63,3.09h4.17l-.15.72h-4.17l-.68,3.34h-.84l1.61-7.86h5.51l-.15.72h-4.68ZM220.68,65.32l-.15.77c-.08,0-.14-.01-.23-.01-1.29,0-2.15.72-2.45,2.19l-.61,3h-.82l1.19-5.91h.78l-.21,1.08c.54-.78,1.33-1.12,2.48-1.12ZM221.79,68.54c-.01.08-.01.16-.01.24,0,1.18.69,1.84,2.08,1.84.8,0,1.53-.28,1.98-.74l.37.57c-.56.55-1.47.88-2.41.88-1.75,0-2.82-.97-2.82-2.52,0-2.01,1.41-3.49,3.34-3.49,1.6,0,2.63.93,2.63,2.5,0,.25-.04.49-.08.72h-5.08ZM221.87,67.95h4.31c.01-.08.01-.15.01-.21,0-1.12-.77-1.74-1.9-1.74-1.22,0-2.13.77-2.42,1.95ZM229.17,65.37h.82l-1.19,5.91h-.82l1.2-5.91ZM229.38,63.55c0-.34.26-.61.63-.61.32,0,.56.24.56.5,0,.36-.28.63-.64.63-.32,0-.55-.25-.55-.53ZM237.85,67.81c0,2.03-1.45,3.51-3.42,3.51-1.17,0-1.98-.48-2.31-1.35l-.26,1.29h-.78l1.7-8.33h.82l-.68,3.31c.56-.58,1.34-.93,2.3-.93,1.55,0,2.64.94,2.64,2.49ZM237.02,67.86c0-1.16-.72-1.84-1.99-1.84-1.5,0-2.61,1.16-2.61,2.77,0,1.16.72,1.83,1.99,1.83,1.5,0,2.61-1.16,2.61-2.76ZM245.59,65.37l-1.21,5.91h-.78l.2-.93c-.58.62-1.38.99-2.36.99-1.55,0-2.63-.94-2.63-2.5,0-2.02,1.45-3.5,3.41-3.5,1.15,0,1.95.46,2.3,1.28l.25-1.24h.82ZM244.23,67.86c0-1.16-.72-1.84-1.99-1.84-1.5,0-2.62,1.17-2.62,2.77,0,1.16.72,1.83,1.99,1.83,1.51,0,2.62-1.16,2.62-2.76ZM253.88,62.94l-1.7,8.33h-.78l.2-.93c-.58.62-1.38.99-2.36.99-1.55,0-2.63-.94-2.63-2.5,0-2.02,1.45-3.5,3.41-3.5,1.15,0,1.94.46,2.3,1.28l.75-3.66h.82ZM252.03,67.86c0-1.16-.72-1.84-1.99-1.84-1.5,0-2.62,1.17-2.62,2.77,0,1.16.72,1.83,1.99,1.83,1.51,0,2.62-1.16,2.62-2.76Z" fill="#72abaf" stroke="#72abaf" stroke-miterlimit="10" stroke-width=".25"/>
  <rect x="19.06" y="56.18" width="234.86" height="1.41" fill="#72abaf" stroke="#72abaf" stroke-miterlimit="10" stroke-width=".25"/>
</svg>